<?xml version="1.0" encoding="UTF-8"?>
<svg id="Capa_2" data-name="Capa 2" xmlns="http://www.w3.org/2000/svg" viewBox="0 0 59.43 43.75">
  <defs>
    <style>
      .cls-1 {
        fill: #ea4f1b;
      }
    </style>
  </defs>
  <g id="Capa_1-2" data-name="Capa 1">
    <path class="cls-1" d="M29.71,0C13.33,0,0,9.81,0,21.87s13.33,21.87,29.71,21.87,29.71-9.81,29.71-21.87S46.1,0,29.71,0ZM20.27,39.05c-8.55-2.54-14.71-8.51-15.7-15.2l6.33-.02c.21,0,.38-.16.38-.36v-3.19c0-.2-.17-.36-.38-.36l-6.33-.02c.99-6.69,7.15-12.65,15.7-15.2l.78-.23-.47.63c-3.39,4.5-5.34,10.62-5.34,16.78s1.95,12.27,5.34,16.78l.47.63-.78-.23ZM54.85,23.85c-.99,6.69-7.15,12.66-15.7,15.2l-.78.23.47-.63c3.28-4.36,5.17-10.44,5.19-16.71v-.23l-.02-1.4c0-.19-.17-.35-.37-.35-4.16-.05-16.9-.06-19.1,0-.21,0-.37.16-.37.36v3.16c0,.2.17.36.38.36h14.62-.02c-.58,9.91-5.34,16.57-9.43,16.57-5.43,0-9.84-9.78-9.84-18.52S24.28,3.36,29.71,3.36c3.82,0,7.64,5.53,8.97,12.78.03.17.19.3.37.3h3.7c.24,0,.42-.2.38-.42-.72-4.33-2.19-8.09-4.31-10.92l-.47-.63.78.23c8.55,2.54,14.72,8.51,15.71,15.2l-6.64.03c-.21,0-.38.16-.38.36v3.18c0,.2.17.36.38.36h6.68l-.04.02Z"/>
  </g>
</svg>